<?xml version="1.0" encoding="iso-8859-1"?>
<!-- Uploaded to: SVG Repo, www.svgrepo.com, Generator: SVG Repo Mixer Tools -->
<svg fill="#ffffff" version="1.1" id="Layer_1" xmlns="http://www.w3.org/2000/svg" xmlns:xlink="http://www.w3.org/1999/xlink" 
	 viewBox="0 0 492.291 492.291" xml:space="preserve">
<g>
	<g>
		<rect x="176.021" y="472.599" width="140.258" height="19.692"/>
	</g>
</g>
<g>
	<g>
		<rect x="153.513" y="432.052" width="185.275" height="19.692"/>
	</g>
</g>
<g>
	<g>
		<path d="M365.06,47.592c-34.413-32.817-79.567-49.553-127.24-47.409C151.117,4.27,79.233,75.327,74.156,161.952
			c-2.327,39.635,8.519,77.582,31.375,109.731c27.433,38.601,43.606,81.918,46.779,125.26l0.663,9.13H339.3l0.596-9.207
			c2.962-45.596,17.904-87.173,43.221-120.24c23.115-30.192,35.327-66.269,35.327-104.341
			C418.444,124.717,399.483,80.433,365.06,47.592z M367.483,264.654c-25.962,33.913-41.942,75.837-46.481,121.726H171.108
			c-4.904-43.846-21.923-87.264-49.519-126.106c-20.231-28.457-29.837-62.058-27.779-97.168
			c4.5-76.707,68.163-139.63,144.933-143.25c42.048-1.99,82.25,12.914,112.721,41.986c30.49,29.091,47.288,68.312,47.288,110.442
			C398.752,205.991,387.935,237.933,367.483,264.654z"/>
	</g>
</g>
</svg>